<svg xmlns="http://www.w3.org/2000/svg" xmlns:xlink="http://www.w3.org/1999/xlink" xmlns:lucid="lucid" width="2851.25" height="1760"><g transform="translate(0 0)" lucid:page-tab-id=".Q4MUjXso07N"><path d="M0 0h2851.25v1760H0z" fill="#fff"/><path d="M420 205a5 5 0 0 1 5-5h1930a5 5 0 0 1 5 5v1450a5 5 0 0 1-5 5H425a5 5 0 0 1-5-5z" stroke="#333" fill-opacity="0"/><use xlink:href="#a" transform="matrix(1,0,0,1,428,208) translate(922.5246913580247 15.11111111111111)"/><path d="M179.75 519.75c0 10.9-8.84 19.75-19.75 19.75-10.9 0-19.75-8.84-19.75-19.75 0-10.9 8.84-19.75 19.75-19.75 10.9 0 19.75 8.84 19.75 19.75z" stroke="#9391ff" fill="#fff"/><path d="M160 539.5v50.3a17.25 17.25 0 0 0 2.67 9.22L200 658m-40-63.2L120 658m0-98.75h80" stroke="#9391ff" fill="none"/><path d="M120 505a5 5 0 0 1 5-5h70a5 5 0 0 1 5 5v170a5 5 0 0 1-5 5h-70a5 5 0 0 1-5-5z" fill="none"/><use xlink:href="#b" transform="matrix(1,0,0,1,40,657.9989633254834) translate(23.425925925925952 9.555555555555557)"/><use xlink:href="#c" transform="matrix(1,0,0,1,40,657.9989633254834) translate(120.04320987654322 9.555555555555557)"/><path d="M2599.75 519.75c0 10.9-8.84 19.75-19.75 19.75-10.9 0-19.75-8.84-19.75-19.75 0-10.9 8.84-19.75 19.75-19.75 10.9 0 19.75 8.84 19.75 19.75z" stroke="#9391ff" fill="#fff"/><path d="M2580 539.5v50.3a17.25 17.25 0 0 0 2.67 9.23L2620 658m-40-63.2l-40 63.2m0-98.75h80" stroke="#9391ff" fill="none"/><path d="M2540 505a5 5 0 0 1 5-5h70a5 5 0 0 1 5 5v170a5 5 0 0 1-5 5h-70a5 5 0 0 1-5-5z" fill="none"/><use xlink:href="#d" transform="matrix(1,0,0,1,2460,658) translate(15.691358024691368 9.555555555555557)"/><use xlink:href="#c" transform="matrix(1,0,0,1,2460,658) translate(127.77777777777777 9.555555555555557)"/><path d="M980 320c0 44.18-71.63 80-160 80s-160-35.82-160-80 71.63-80 160-80 160 35.82 160 80z" stroke="#fff" fill="#3278cc"/><use xlink:href="#e" transform="matrix(1,0,0,1,708,272) translate(55.87037037037038 35.55555555555556)"/><use xlink:href="#f" transform="matrix(1,0,0,1,708,272) translate(27.395061728395092 72.88888888888889)"/><use xlink:href="#g" transform="matrix(1,0,0,1,708,272) translate(155.20987654320987 72.88888888888889)"/><path d="M960 530c0 49.7-65.95 90-147.3 90-81.36 0-147.3-40.3-147.3-90s65.95-90 147.3-90c81.35 0 147.3 40.3 147.3 90z" stroke="#fff" fill="#3278cc"/><use xlink:href="#h" transform="matrix(1,0,0,1,709.5866484189668,476) translate(9.345679012345698 41.55555555555556)"/><use xlink:href="#i" transform="matrix(1,0,0,1,709.5866484189668,476) translate(130.2469135802469 41.55555555555556)"/><use xlink:href="#j" transform="matrix(1,0,0,1,709.5866484189668,476) translate(78.4814814814815 78.88888888888889)"/><path d="M160.95 589.76l498.1-269.52M160.96 589.75l-3.1 1.68" stroke="#333" fill="none"/><path d="M659.5 320v.56l-.2.12-.5-.88.7-.38z" stroke="#333" stroke-width=".05" fill="#333"/><path d="M161 589.94l503.4-59.88M161 589.94l-3.47.4" stroke="#333" fill="none"/><path d="M664.9 530v.5l-.45.06-.12-1 .58-.06z" stroke="#333" stroke-width=".05" fill="#333"/><path d="M253.15 77a8 8 0 0 1 8-8h836.75a8 8 0 0 1 8 8v25.16a8 8 0 0 1-8 8H261.15a8 8 0 0 1-8-8z" stroke="#000" stroke-opacity="0" stroke-width="2" fill="#fff" fill-opacity="0"/><use xlink:href="#k" transform="matrix(1,0,0,1,273.14655278534315,68.99999999994924) translate(298.4748148148148 27.584444444444443)"/><use xlink:href="#l" transform="matrix(1,0,0,1,273.14655278534315,68.99999999994924) translate(353.76 27.584444444444443)"/><use xlink:href="#m" transform="matrix(1,0,0,1,273.14655278534315,68.99999999994924) translate(419.31555555555553 27.584444444444443)"/><path d="M529.6 108.8h309.14M529.6 108.8h-1M838.72 108.8h1.02" stroke="#a9afb8" stroke-width="2" fill="none"/><path d="M253.15 118.16a8 8 0 0 1 8-8h837.7a8 8 0 0 1 8 8V121a8 8 0 0 1-8 8h-837.7a8 8 0 0 1-8-8z" stroke="#000" stroke-opacity="0" stroke-width="2" fill="#fff" fill-opacity="0"/><use xlink:href="#n" transform="matrix(1,0,0,1,273.1465527853436,110.15522395684805) translate(292.06113168724283 14.917037037037037)"/><use xlink:href="#o" transform="matrix(1,0,0,1,273.1465527853436,110.15522395684805) translate(339.5646296296297 14.917037037037037)"/><use xlink:href="#p" transform="matrix(1,0,0,1,273.1465527853436,110.15522395684805) translate(399.8150411522634 14.917037037037037)"/><use xlink:href="#q" transform="matrix(1,0,0,1,273.1465527853436,110.15522395684805) translate(412.2645267489712 14.917037037037037)"/><use xlink:href="#r" transform="matrix(1,0,0,1,273.1465527853436,110.15522395684805) translate(477.5712139917696 14.917037037037037)"/><use xlink:href="#s" transform="matrix(1,0,0,1,273.1465527853436,110.15522395684805) translate(494.5670987654321 14.917037037037037)"/><path d="M1700 790c0 44.18-71.63 80-160 80s-160-35.82-160-80 71.63-80 160-80 160 35.82 160 80z" stroke="#fff" fill="#3278cc"/><use xlink:href="#h" transform="matrix(1,0,0,1,1428,742) translate(29.944444444444457 35.55555555555556)"/><use xlink:href="#t" transform="matrix(1,0,0,1,1428,742) translate(150.84567901234567 35.55555555555556)"/><use xlink:href="#u" transform="matrix(1,0,0,1,1428,742) translate(74.83950617283952 72.88888888888889)"/><path d="M1660 520c0 44.18-71.63 80-160 80s-160-35.82-160-80 71.63-80 160-80 160 35.82 160 80z" stroke="#fff" fill="#3278cc"/><use xlink:href="#h" transform="matrix(1,0,0,1,1388,472) translate(17.8456790123457 35.55555555555556)"/><use xlink:href="#i" transform="matrix(1,0,0,1,1388,472) translate(138.7469135802469 35.55555555555556)"/><use xlink:href="#v" transform="matrix(1,0,0,1,1388,472) translate(35.950617283950635 72.88888888888889)"/><use xlink:href="#w" transform="matrix(1,0,0,1,1388,472) translate(153.48148148148147 72.88888888888889)"/><path d="M1620 340c0 44.18-71.63 80-160 80s-160-35.82-160-80 71.63-80 160-80 160 35.82 160 80z" stroke="#fff" fill="#3278cc"/><use xlink:href="#e" transform="matrix(1,0,0,1,1348,292) translate(55.87037037037038 35.55555555555556)"/><use xlink:href="#x" transform="matrix(1,0,0,1,1348,292) translate(29.987654320987673 72.88888888888889)"/><use xlink:href="#y" transform="matrix(1,0,0,1,1348,292) translate(168.0864197530864 72.88888888888889)"/><path d="M1620.98 340.13l937.55 253.75" stroke="#333" fill="none"/><path d="M1621.13 339.65l-.27.97-.37-.1v-1.04z" stroke="#333" stroke-width=".05" fill="#333"/><path d="M2558.5 593.87l.5.14M1701 789.9l878.5-194.06" stroke="#333" fill="none"/><path d="M1701.1 790.38l-.6.13v-1l.4-.1z" stroke="#333" stroke-width=".05" fill="#333"/><path d="M2579.5 595.85l3.43-.76M1661 520.04l918.5 75.65" stroke="#333" fill="none"/><path d="M1661.05 519.54l-.08 1-.48-.04v-1z" stroke="#333" stroke-width=".05" fill="#333"/><path d="M2579.5 595.7l3.5.28" stroke="#333" fill="none"/><path d="M159.75 959.75c0 10.9-8.84 19.75-19.75 19.75-10.9 0-19.75-8.84-19.75-19.75 0-10.9 8.84-19.75 19.75-19.75 10.9 0 19.75 8.84 19.75 19.75z" stroke="#9391ff" fill="#fff"/><path d="M140 979.5v50.3a17.25 17.25 0 0 0 2.67 9.23L180 1098m-40-63.2l-40 63.2m0-98.75h80" stroke="#9391ff" fill="none"/><path d="M100 945a5 5 0 0 1 5-5h70a5 5 0 0 1 5 5v170a5 5 0 0 1-5 5h-70a5 5 0 0 1-5-5z" fill="none"/><use xlink:href="#z" transform="matrix(1,0,0,1,20,1098) translate(71.69135802469137 9.555555555555557)"/><path d="M1060 740c0 44.18-98.5 80-220 80s-220-35.82-220-80 98.5-80 220-80 220 35.82 220 80z" stroke="#fff" fill="#3278cc"/><use xlink:href="#A" transform="matrix(1,0,0,1,686,692) translate(37.419753086419774 54.22222222222222)"/><use xlink:href="#B" transform="matrix(1,0,0,1,686,692) translate(116.75308641975309 54.22222222222222)"/><use xlink:href="#C" transform="matrix(1,0,0,1,686,692) translate(227.37037037037035 54.22222222222222)"/><path d="M1670 1210c0 49.7-94.02 90-210 90s-210-40.3-210-90 94.02-90 210-90 210 40.3 210 90z" stroke="#fff" fill="#3278cc"/><use xlink:href="#D" transform="matrix(1,0,0,1,1313,1156) translate(42.51851851851853 41.55555555555556)"/><use xlink:href="#E" transform="matrix(1,0,0,1,1313,1156) translate(132.30864197530866 41.55555555555556)"/><use xlink:href="#F" transform="matrix(1,0,0,1,1313,1156) translate(95.19135802469137 78.88888888888889)"/><path d="M920 1200c0 44.18-94.02 80-210 80s-210-35.82-210-80 94.02-80 210-80 210 35.82 210 80z" stroke="#fff" fill="#3278cc"/><use xlink:href="#G" transform="matrix(1,0,0,1,563,1152) translate(96.01234567901236 54.22222222222222)"/><use xlink:href="#H" transform="matrix(1,0,0,1,563,1152) translate(154.77777777777777 54.22222222222222)"/><path d="M140.93 1029.74l478.14-289.48M140.94 1029.73l-3 1.82" stroke="#333" fill="none"/><path d="M619.5 740v.58l-.18.1-.52-.84.7-.43z" stroke="#333" stroke-width=".05" fill="#333"/><path d="M185.72 1048.14l313.33 151.64M185.74 1048.15l-.47-.22" stroke="#333" fill="none"/><path d="M499.5 1199.45v1.11l-.68-.33.44-.9z" stroke="#333" stroke-width=".05" fill="#333"/><path d="M2080 1155c0 44.18-98.5 80-220 80s-220-35.82-220-80 98.5-80 220-80 220 35.82 220 80z" stroke="#fff" fill="#3278cc"/><use xlink:href="#I" transform="matrix(1,0,0,1,1706,1107) translate(21.820987654321016 54.22222222222222)"/><use xlink:href="#B" transform="matrix(1,0,0,1,1706,1107) translate(132.35185185185185 54.22222222222222)"/><use xlink:href="#C" transform="matrix(1,0,0,1,1706,1107) translate(242.9691358024691 54.22222222222222)"/><path d="M2160 1350c0 44.18-98.5 80-220 80s-220-35.82-220-80 98.5-80 220-80 220 35.82 220 80z" stroke="#fff" fill="#3278cc"/><use xlink:href="#J" transform="matrix(1,0,0,1,1786,1302) translate(39.19135802469137 54.22222222222222)"/><use xlink:href="#B" transform="matrix(1,0,0,1,1786,1302) translate(114.98148148148148 54.22222222222222)"/><use xlink:href="#C" transform="matrix(1,0,0,1,1786,1302) translate(225.59876543209876 54.22222222222222)"/><path d="M2015.02 1273.88L2570.42 601c-2.13-1.75-2.43-4.9-.67-7.04.27-.32.52-.56.86-.8 1.22-2.5 4.2-3.53 6.7-2.32.37.18.66.37 1 .64l.9-1.1" stroke="#333" fill="none"/><path d="M2015.4 1274.2l-.12.16-1.15-.17.5-.64z" stroke="#333" stroke-width=".05" fill="#333"/><path d="M2579.18 590.4l2.24-2.7M2029.4 1102.94l538.24-501.87c-1.9-2.02-1.78-5.2.24-7.07.47-.43.93-.73 1.53-.97 1.22-2.48 4.22-3.5 6.7-2.3.57.3 1 .63 1.45 1.1l1.6-1.5" stroke="#333" fill="none"/><path d="M2029.75 1103.3l-.2.2-1.02-.43.54-.5z" stroke="#333" stroke-width=".05" fill="#333"/><path d="M2579.13 590.35l2.57-2.4" stroke="#333" fill="none"/><path d="M1320 980c0 44.18-98.5 80-220 80s-220-35.82-220-80 98.5-80 220-80 220 35.82 220 80z" stroke="#fff" fill="#3278cc"/><use xlink:href="#K" transform="matrix(1,0,0,1,946,932) translate(21.907407407407447 54.22222222222222)"/><use xlink:href="#L" transform="matrix(1,0,0,1,946,932) translate(153.179012345679 54.22222222222222)"/><use xlink:href="#M" transform="matrix(1,0,0,1,946,932) translate(205.03086419753083 54.22222222222222)"/><path d="M1320.98 979.85L2560.2 595.98c-.8-2.64.67-5.44 3.3-6.26 2.64-.82 5.44.66 6.26 3.3l9.27-2.87" stroke="#333" fill="none"/><path d="M1321.14 980.33l-.65.2v-1.05l.34-.1z" stroke="#333" stroke-width=".05" fill="#333"/><path d="M2579.02 590.15l3.35-1.04M141 1029.97l738-49.94M141.02 1029.96l-3.5.24" stroke="#333" fill="none"/><path d="M879.5 980v.5l-.48.03-.06-1 .55-.03z" stroke="#333" stroke-width=".05" fill="#333"/><path d="M1061 739.95L2540.15 589.1" stroke="#333" fill="none"/><path d="M1061.06 740.45l-.57.05v-1l.46-.05z" stroke="#333" stroke-width=".05" fill="#333"/><path d="M2540.13 589.1l.5-.06M2775.43 1242" stroke="#333" fill="none"/><path d="M2773.82 1242l-14.27 4.64v-9.27z" stroke="#333" fill="#333"/><path d="M1106.85 1510c0 49.7-80.58 90-180 90-99.4 0-180-40.3-180-90s80.6-90 180-90c99.42 0 180 40.3 180 90z" stroke="#fff" fill="#3278cc"/><g><use xlink:href="#N" transform="matrix(1,0,0,1,800.8534472146569,1456) translate(24.067901234567927 60.22222222222222)"/><use xlink:href="#O" transform="matrix(1,0,0,1,800.8534472146569,1456) translate(125.9567901234568 60.22222222222222)"/></g><path d="M959.17 1200.5H921v-1h38.17zm275.2 0h-103.04v-1h103.05z" stroke="#333" stroke-width=".05" fill="#333"/><path d="M921 1200.5h-.5v-1h.5z" fill="#333"/><path d="M921.04 1200.53h-.58v-1.06h.58zm-.52-1v.94h.47v-.94z" stroke="#333" stroke-width=".05" fill="#333"/><path d="M1249.15 1200l-14.27 4.63v-9.27z" fill="#333"/><path d="M1250.77 1200l-16.4 5.32v-10.64zm-15.4 3.95l12.16-3.95-12.15-3.95z" stroke="#333" stroke-width=".05" fill="#333"/><g><use xlink:href="#P" transform="matrix(1,0,0,1,959.1702236914286,1181.2) translate(0.0049999999999954525 25.066666666666663)"/></g><path d="M927.35 1419h-1v-93.63h1zm0-131.23h-1v-77.74h1z" stroke="#333" stroke-width=".05" fill="#333"/><path d="M927.35 1419.5h-1v-.5h1z" fill="#333"/><path d="M927.38 1419.54h-1.05v-.58h1.05zm-1-.53v.48h.95v-.47z" stroke="#333" stroke-width=".05" fill="#333"/><path d="M932.9 1210.94l-7.82 4.96-3.7-14.53z" fill="#333"/><path d="M933.76 1211l-9 5.7-4.26-16.7zm-8.36 4.1l6.67-4.22-9.84-8.15z" stroke="#333" stroke-width=".05" fill="#333"/><g><use xlink:href="#Q" transform="matrix(1,0,0,1,843.2978916591013,1287.7732764690425) translate(0.0049999999999954525 25.066666666666663)"/></g><path d="M2000 960c0 44.18-98.5 80-220 80s-220-35.82-220-80 98.5-80 220-80 220 35.82 220 80z" stroke="#fff" fill="#3278cc"/><g><use xlink:href="#R" transform="matrix(1,0,0,1,1626,912) translate(53.7530864197531 35.55555555555556)"/><use xlink:href="#S" transform="matrix(1,0,0,1,1626,912) translate(154 35.55555555555556)"/><use xlink:href="#T" transform="matrix(1,0,0,1,1626,912) translate(94.4135802469136 72.88888888888889)"/></g><path d="M2000.9 959.72l503.8-345.43c-1.57-2.3-1-5.4 1.3-6.96 2.26-1.57 5.38-1 6.94 1.3l20.05-13.75c-1.5-2.2-.95-5.16 1.22-6.65 2.18-1.5 5.15-.94 6.64 1.24" stroke="#333" fill="none"/><path d="M2001.2 960.12l-.7.5v-1.22l.14-.1z" stroke="#333" stroke-width=".05" fill="#333"/><path d="M2540.85 589.5l.42-.3" stroke="#333" fill="none"/><path d="M2440 100h208l52 52v228h-260z" stroke="#333" fill="#fff"/><path d="M2648 100.48V152h51.52" stroke="#333" fill="#fff"/><g><use xlink:href="#U" transform="matrix(1,0,0,1,2466,133.2) translate(47.87037037037037 43.555555555555536)"/><use xlink:href="#V" transform="matrix(1,0,0,1,2466,133.2) translate(47.43827160493827 80.88888888888889)"/><use xlink:href="#W" transform="matrix(1,0,0,1,2466,133.2) translate(72.9753086419753 118.22222222222223)"/><use xlink:href="#X" transform="matrix(1,0,0,1,2466,133.2) translate(52.148148148148145 155.55555555555557)"/><use xlink:href="#Y" transform="matrix(1,0,0,1,2466,133.2) translate(57.37654320987654 192.88888888888889)"/></g><path d="M2559.75 1159.75c0 10.9-8.84 19.75-19.75 19.75-10.9 0-19.75-8.84-19.75-19.75 0-10.9 8.84-19.75 19.75-19.75 10.9 0 19.75 8.84 19.75 19.75z" stroke="#9391ff" fill="#fff"/><path d="M2540 1179.5v50.3a17.25 17.25 0 0 0 2.67 9.23L2580 1298m-40-63.2l-40 63.2m0-98.75h80" stroke="#9391ff" fill="none"/><path d="M2500 1145a5 5 0 0 1 5-5h70a5 5 0 0 1 5 5v170a5 5 0 0 1-5 5h-70a5 5 0 0 1-5-5z" fill="none"/><g><use xlink:href="#Z" transform="matrix(1,0,0,1,2420,1298) translate(62.314814814814824 9.555555555555557)"/></g><path d="M1920 1540c0 44.18-98.5 80-220 80s-220-35.82-220-80 98.5-80 220-80 220 35.82 220 80z" stroke="#fff" fill="#3278cc"/><g><use xlink:href="#aa" transform="matrix(1,0,0,1,1546,1492) translate(97.0493827160494 54.22222222222222)"/><use xlink:href="#H" transform="matrix(1,0,0,1,1546,1492) translate(167.74074074074073 54.22222222222222)"/></g><path d="M1920.95 1539.78l618.1-309.56" stroke="#333" fill="none"/><path d="M1921.18 1540.22l-.7.35.02-.57v-.56l.23-.12z" stroke="#333" stroke-width=".05" fill="#333"/><path d="M2539.05 1230.23l3.14-1.57" stroke="#333" fill="none"/><defs><path fill="#333" d="M178-136c88 48 22 151-73 140C49-3 12-15 4-64l51-9c1 50 111 53 115 3-16-63-132-20-133-112 0-93 190-91 199-10l-50 12c-4-41-93-50-97-4 7 38 59 32 89 48" id="ab"/><path fill="#333" d="M100 10C77 47 50 87-15 72l7-35c37 9 51-18 65-41L20-190h51L89-44l73-146h53" id="ac"/><path fill="#333" d="M144-137c-1-29-70-35-71-2 16 41 103 10 103 80C176 9 79 16 32-9 18-17 9-31 4-48l44-6c3 32 80 36 82 1-15-42-103-11-103-82 0-77 157-79 161-8" id="ad"/><path fill="#333" d="M72-63c-8 23 5 39 32 30L98-1C54 14 12-6 23-64l18-93H15l7-33h28l24-45h31l-8 45h35l-6 33H90" id="ae"/><path fill="#333" d="M114-194c63-2 87 48 72 110H63c-3 28 1 55 31 54 21-1 32-13 37-29l44 13C160-14 137 4 91 4 41 4 11-22 11-73c0-71 33-119 103-121zm30 77c14-47-50-61-67-22-3 6-6 13-8 22h75" id="af"/><path fill="#333" d="M255-194c90 0 29 129 24 194h-49l25-136c-7-39-53-14-60 9-12 38-18 85-28 127h-49l25-136c2-29-39-23-50-7C69-108 68-47 56 0H6l36-190h48c-1 10-6 24-4 32 12-20 27-36 57-36s46 15 50 41c14-21 29-41 62-41" id="ag"/><g id="a"><use transform="matrix(0.06172839506172839,0,0,0.06172839506172839,0,0)" xlink:href="#ab"/><use transform="matrix(0.06172839506172839,0,0,0.06172839506172839,14.814814814814813,0)" xlink:href="#ac"/><use transform="matrix(0.06172839506172839,0,0,0.06172839506172839,27.160493827160494,0)" xlink:href="#ad"/><use transform="matrix(0.06172839506172839,0,0,0.06172839506172839,39.50617283950617,0)" xlink:href="#ae"/><use transform="matrix(0.06172839506172839,0,0,0.06172839506172839,46.85185185185185,0)" xlink:href="#af"/><use transform="matrix(0.06172839506172839,0,0,0.06172839506172839,59.197530864197525,0)" xlink:href="#ag"/></g><path fill="#333" d="M69 3c-96 0-34-126-28-193h49L65-57c6 42 62 18 71-6 14-38 17-86 28-127h50L178 0h-47c0-11 4-26 3-33-14 20-30 37-65 36" id="ah"/><path fill="#333" d="M156-122c2-23-7-37-28-37-47 0-58 44-58 89 0 24 12 40 36 40 43 0 47-49 50-92zM-8 75l50-265h48c0 10-3 24-3 30 22-50 127-45 121 29-6 73-21 135-92 135-29 0-46-14-55-35L41 75H-8" id="ai"/><path fill="#333" d="M84-151c13-25 34-51 72-40l-8 41C67-170 71-64 56 0H6l36-190h47" id="aj"/><g id="b"><use transform="matrix(0.08641975308641973,0,0,0.08641975308641973,0,0)" xlink:href="#ab"/><use transform="matrix(0.08641975308641973,0,0,0.08641975308641973,20.740740740740737,0)" xlink:href="#ah"/><use transform="matrix(0.08641975308641973,0,0,0.08641975308641973,39.66666666666666,0)" xlink:href="#ai"/><use transform="matrix(0.08641975308641973,0,0,0.08641975308641973,58.59259259259258,0)" xlink:href="#af"/><use transform="matrix(0.08641975308641973,0,0,0.08641975308641973,75.87654320987653,0)" xlink:href="#aj"/></g><path fill="#333" d="M183 0l-10-63H79L44 0H-7l138-248h61L234 0h-51zm-14-102l-15-108c-16 38-36 73-55 108h70" id="ak"/><path fill="#333" d="M132-28C118-9 101 4 69 4 30 4 10-23 10-62c0-70 24-129 92-132 31-1 47 14 56 35l19-102h49L179 0h-49zM62-69c0 22 7 39 29 39 45-2 54-45 57-90 2-27-10-40-33-40-44 0-53 48-53 91" id="al"/><path fill="#333" d="M50-224l7-37h49l-7 37H50zM6 0l37-190h49L55 0H6" id="am"/><path fill="#333" d="M151-194c95 0 34 128 28 194h-49l25-134c0-29-45-25-59-9C67-111 69-48 56 0H6l36-190h47l-4 32c15-20 33-36 66-36" id="an"/><g id="c"><use transform="matrix(0.08641975308641973,0,0,0.08641975308641973,0,0)" xlink:href="#ak"/><use transform="matrix(0.08641975308641973,0,0,0.08641975308641973,22.38271604938271,0)" xlink:href="#al"/><use transform="matrix(0.08641975308641973,0,0,0.08641975308641973,41.30864197530863,0)" xlink:href="#ag"/><use transform="matrix(0.08641975308641973,0,0,0.08641975308641973,68.96296296296295,0)" xlink:href="#am"/><use transform="matrix(0.08641975308641973,0,0,0.08641975308641973,77.60493827160492,0)" xlink:href="#an"/></g><path fill="#333" d="M67-101c-8 29-7 73 27 71 23-2 32-16 39-37l48 9C170-19 141 4 91 4 36 4 7-28 12-86c6-75 61-124 140-103 26 7 40 29 43 59l-50 4c-1-20-9-34-29-34-35 0-41 29-49 59" id="ao"/><path fill="#333" d="M150-105c8-23 8-54-22-51-68 7-54 98-72 156H6l50-261h50L85-158c15-20 33-36 66-36 95 0 34 128 28 194h-49" id="ap"/><path fill="#333" d="M124-194c51 0 84 22 84 74C207-44 167 4 94 4 43 4 11-23 11-74c0-74 41-120 113-120zM99-30c46 0 58-42 58-86 0-27-11-44-37-44-44 0-55 40-57 84-1 27 10 45 36 46" id="aq"/><path fill="#333" d="M6 0l51-261h49L55 0H6" id="ar"/><g id="d"><use transform="matrix(0.08641975308641973,0,0,0.08641975308641973,0,0)" xlink:href="#ab"/><use transform="matrix(0.08641975308641973,0,0,0.08641975308641973,20.740740740740737,0)" xlink:href="#ao"/><use transform="matrix(0.08641975308641973,0,0,0.08641975308641973,38.02469135802468,0)" xlink:href="#ap"/><use transform="matrix(0.08641975308641973,0,0,0.08641975308641973,56.950617283950606,0)" xlink:href="#aq"/><use transform="matrix(0.08641975308641973,0,0,0.08641975308641973,75.87654320987653,0)" xlink:href="#aq"/><use transform="matrix(0.08641975308641973,0,0,0.08641975308641973,94.80246913580245,0)" xlink:href="#ar"/></g><path fill="#fff" d="M248-111c6-24 9-61-24-58-72 9-57 108-77 169h-31l26-142c3-37-50-30-64-10C52-115 50-51 37 0H6l36-190h30c-1 10-6 24-4 32 13-43 101-52 105 5 13-22 29-41 61-41 90 0 28 129 23 194h-31" id="as"/><path fill="#fff" d="M165-48c-4 18 1 34 23 27l-3 20c-29 8-62 0-52-35h-2C116-14 99 4 63 4 30 4 8-16 8-49c0-68 71-67 138-67 10-26 0-56-31-54-26 1-42 9-47 31l-32-5c8-67 160-71 144 15-5 28-9 54-15 81zM42-50c3 52 80 24 89-6 7-12 7-24 11-38-47 1-103-4-100 44" id="at"/><path fill="#fff" d="M67-158c22-48 132-52 116 29L158 0h-32l25-140c3-38-53-32-70-12C52-117 51-52 38 0H6l36-190h30" id="au"/><path fill="#fff" d="M103-194c29 0 47 14 56 36 2-11 5-23 8-32h30L160-5C157 61 82 97 21 62 9 55 4 45 1 30l28-7c7 42 83 31 92-3 4-16 9-38 13-55-13 20-29 36-62 36-40 0-60-25-60-64 0-71 23-131 91-131zm4 24c-53 0-58 54-61 104-2 27 10 44 36 44 49 0 65-50 67-102 1-29-15-46-42-46" id="av"/><path fill="#fff" d="M111-194c62-3 86 47 72 106H45c-7 38 6 69 45 68 27-1 43-14 53-32l24 11C152-15 129 4 87 4 38 3 12-23 12-71c0-70 32-119 99-123zm44 81c14-66-71-72-95-28-4 8-8 17-11 28h106" id="aw"/><g id="e"><use transform="matrix(0.08641975308641973,0,0,0.08641975308641973,0,0)" xlink:href="#as"/><use transform="matrix(0.08641975308641973,0,0,0.08641975308641973,25.8395061728395,0)" xlink:href="#at"/><use transform="matrix(0.08641975308641973,0,0,0.08641975308641973,43.12345679012344,0)" xlink:href="#au"/><use transform="matrix(0.08641975308641973,0,0,0.08641975308641973,60.4074074074074,0)" xlink:href="#at"/><use transform="matrix(0.08641975308641973,0,0,0.08641975308641973,77.69135802469134,0)" xlink:href="#av"/><use transform="matrix(0.08641975308641973,0,0,0.08641975308641973,94.97530864197529,0)" xlink:href="#aw"/></g><path fill="#fff" d="M67-162c32-53 139-36 121 50C175-51 163 2 97 4 68 4 52-11 42-31 38 6 28 39 22 75H-9l50-265h29c-1 10 0 20-3 28zm89 36c0-26-10-43-35-43-54 0-67 50-69 103-1 29 14 45 42 46 53 0 62-58 62-106" id="ax"/><path fill="#fff" d="M198-190L69 30C53 58 25 83-20 72c4-11-1-27 19-22 33-1 43-29 59-52L20-190h32L79-34l84-156h35" id="ay"/><path fill="#fff" d="M51-54c-9 22 5 41 31 30L79-1C43 14 10-4 19-52l22-115H19l5-23h22l19-43h21l-9 43h35l-4 23H73" id="az"/><g id="f"><use transform="matrix(0.08641975308641973,0,0,0.08641975308641973,0,0)" xlink:href="#ax"/><use transform="matrix(0.08641975308641973,0,0,0.08641975308641973,17.283950617283946,0)" xlink:href="#at"/><use transform="matrix(0.08641975308641973,0,0,0.08641975308641973,34.56790123456789,0)" xlink:href="#ay"/><use transform="matrix(0.08641975308641973,0,0,0.08641975308641973,50.12345679012345,0)" xlink:href="#as"/><use transform="matrix(0.08641975308641973,0,0,0.08641975308641973,75.96296296296293,0)" xlink:href="#aw"/><use transform="matrix(0.08641975308641973,0,0,0.08641975308641973,93.24691358024687,0)" xlink:href="#au"/><use transform="matrix(0.08641975308641973,0,0,0.08641975308641973,110.53086419753085,0)" xlink:href="#az"/></g><path fill="#fff" d="M50-231l6-30h32l-6 30H50zM6 0l37-190h31L37 0H6" id="aA"/><g id="g"><use transform="matrix(0.08641975308641973,0,0,0.08641975308641973,0,0)" xlink:href="#at"/><use transform="matrix(0.08641975308641973,0,0,0.08641975308641973,17.283950617283946,0)" xlink:href="#ax"/><use transform="matrix(0.08641975308641973,0,0,0.08641975308641973,34.56790123456789,0)" xlink:href="#aA"/></g><g id="h"><use transform="matrix(0.08641975308641973,0,0,0.08641975308641973,0,0)" xlink:href="#as"/><use transform="matrix(0.08641975308641973,0,0,0.08641975308641973,25.8395061728395,0)" xlink:href="#at"/><use transform="matrix(0.08641975308641973,0,0,0.08641975308641973,43.12345679012344,0)" xlink:href="#au"/><use transform="matrix(0.08641975308641973,0,0,0.08641975308641973,60.4074074074074,0)" xlink:href="#at"/><use transform="matrix(0.08641975308641973,0,0,0.08641975308641973,77.69135802469134,0)" xlink:href="#av"/><use transform="matrix(0.08641975308641973,0,0,0.08641975308641973,94.97530864197529,0)" xlink:href="#aw"/></g><path fill="#fff" d="M68-162c25-46 127-43 121 31C183-60 169 1 98 4 69 5 53-11 43-31L36 0H5l52-261h31zm88 36c2-27-9-43-34-43-55 0-70 51-70 103 0 29 15 45 43 46 52 0 58-58 61-106" id="aB"/><path fill="#fff" d="M127 0L80-88 50-66 37 0H6l51-261h31L57-100l99-90h39l-93 82L161 0h-34" id="aC"/><g id="i"><use transform="matrix(0.08641975308641973,0,0,0.08641975308641973,0,0)" xlink:href="#aB"/><use transform="matrix(0.08641975308641973,0,0,0.08641975308641973,17.283950617283946,0)" xlink:href="#at"/><use transform="matrix(0.08641975308641973,0,0,0.08641975308641973,34.56790123456789,0)" xlink:href="#au"/><use transform="matrix(0.08641975308641973,0,0,0.08641975308641973,51.85185185185183,0)" xlink:href="#aC"/></g><path fill="#fff" d="M76-167L44 0H12l33-167H18l4-23h27c3-47 25-81 82-69l-4 24c-35-8-44 15-46 45h37l-5 23H76" id="aD"/><path fill="#fff" d="M30-147c31-64 166-65 159 27C183-49 158 1 86 4 9 8 1-88 30-147zM88-20c53 0 68-48 68-100 0-31-11-51-44-50-52 1-68 46-68 97 0 32 13 53 44 53" id="aE"/><g id="j"><use transform="matrix(0.08641975308641973,0,0,0.08641975308641973,0,0)" xlink:href="#aA"/><use transform="matrix(0.08641975308641973,0,0,0.08641975308641973,6.827160493827159,0)" xlink:href="#au"/><use transform="matrix(0.08641975308641973,0,0,0.08641975308641973,24.111111111111107,0)" xlink:href="#aD"/><use transform="matrix(0.08641975308641973,0,0,0.08641975308641973,32.753086419753075,0)" xlink:href="#aE"/></g><path fill="#a9afb8" d="M238-95c0 69-44 99-111 99C63 4 22-25 22-93v-155h51v151c-1 38 19 59 55 60 90 1 49-130 58-211h52v153" id="aF"/><path fill="#a9afb8" d="M137-138c1-29-70-34-71-4 15 46 118 7 119 86 1 83-164 76-172 9l43-7c4 19 20 25 44 25 33 8 57-30 24-41C81-84 22-81 20-136c-2-80 154-74 161-7" id="aG"/><path fill="#a9afb8" d="M185-48c-13 30-37 53-82 52C43 2 14-33 14-96s30-98 90-98c62 0 83 45 84 108H66c0 31 8 55 39 56 18 0 30-7 34-22zm-45-69c5-46-57-63-70-21-2 6-4 13-4 21h74" id="aH"/><g id="k"><use transform="matrix(0.0728395061728395,0,0,0.0728395061728395,0,0)" xlink:href="#aF"/><use transform="matrix(0.0728395061728395,0,0,0.0728395061728395,18.86543209876543,0)" xlink:href="#aG"/><use transform="matrix(0.0728395061728395,0,0,0.0728395061728395,33.43333333333333,0)" xlink:href="#aH"/></g><path fill="#a9afb8" d="M190-63c-7 42-38 67-86 67-59 0-84-38-90-98-12-110 154-137 174-36l-49 2c-2-19-15-32-35-32-30 0-35 28-38 64-6 74 65 87 74 30" id="aI"/><path fill="#a9afb8" d="M133-34C117-15 103 5 69 4 32 3 11-16 11-54c-1-60 55-63 116-61 1-26-3-47-28-47-18 1-26 9-28 27l-52-2c7-38 36-58 82-57s74 22 75 68l1 82c-1 14 12 18 25 15v27c-30 8-71 5-69-32zm-48 3c29 0 43-24 42-57-32 0-66-3-65 30 0 17 8 27 23 27" id="aJ"/><g id="l"><use transform="matrix(0.0728395061728395,0,0,0.0728395061728395,0,0)" xlink:href="#aI"/><use transform="matrix(0.0728395061728395,0,0,0.0728395061728395,14.5679012345679,0)" xlink:href="#aJ"/><use transform="matrix(0.0728395061728395,0,0,0.0728395061728395,29.1358024691358,0)" xlink:href="#aG"/><use transform="matrix(0.0728395061728395,0,0,0.0728395061728395,43.7037037037037,0)" xlink:href="#aH"/></g><path fill="#a9afb8" d="M88-194c31-1 46 15 58 34l-1-101h50l1 261h-48c-2-10 0-23-3-31C134-8 116 4 84 4 32 4 16-41 15-95c0-56 19-97 73-99zm17 164c33 0 40-30 41-66 1-37-9-64-41-64s-38 30-39 65c0 43 13 65 39 65" id="aK"/><path fill="#a9afb8" d="M25-224v-37h50v37H25zM25 0v-190h50V0H25" id="aL"/><path fill="#a9afb8" d="M195-6C206 82 75 100 31 46c-4-6-6-13-8-21l49-6c3 16 16 24 34 25 40 0 42-37 40-79-11 22-30 35-61 35-53 0-70-43-70-97 0-56 18-96 73-97 30 0 46 14 59 34l2-30h47zm-90-29c32 0 41-27 41-63 0-35-9-62-40-62-32 0-39 29-40 63 0 36 9 62 39 62" id="aM"/><path fill="#a9afb8" d="M135-150c-39-12-60 13-60 57V0H25l-1-190h47c2 13-1 29 3 40 6-28 27-53 61-41v41" id="aN"/><path fill="#a9afb8" d="M220-157c-53 9-28 100-34 157h-49v-107c1-27-5-49-29-50C55-147 81-57 75 0H25l-1-190h47c2 12-1 28 3 38 10-53 101-56 108 0 13-22 24-43 59-42 82 1 51 116 57 194h-49v-107c-1-25-5-48-29-50" id="aO"/><g id="m"><use transform="matrix(0.0728395061728395,0,0,0.0728395061728395,0,0)" xlink:href="#aK"/><use transform="matrix(0.0728395061728395,0,0,0.0728395061728395,15.95185185185185,0)" xlink:href="#aL"/><use transform="matrix(0.0728395061728395,0,0,0.0728395061728395,23.235802469135802,0)" xlink:href="#aJ"/><use transform="matrix(0.0728395061728395,0,0,0.0728395061728395,37.803703703703704,0)" xlink:href="#aM"/><use transform="matrix(0.0728395061728395,0,0,0.0728395061728395,53.75555555555555,0)" xlink:href="#aN"/><use transform="matrix(0.0728395061728395,0,0,0.0728395061728395,63.953086419753085,0)" xlink:href="#aJ"/><use transform="matrix(0.0728395061728395,0,0,0.0728395061728395,78.52098765432099,0)" xlink:href="#aO"/></g><path fill="#a9afb8" d="M205 0l-28-72H64L36 0H1l101-248h38L239 0h-34zm-38-99l-47-123c-12 45-31 82-46 123h93" id="aP"/><path fill="#a9afb8" d="M24 0v-261h32V0H24" id="aQ"/><path fill="#a9afb8" d="M100-194c63 0 86 42 84 106H49c0 40 14 67 53 68 26 1 43-12 49-29l28 8c-11 28-37 45-77 45C44 4 14-33 15-96c1-61 26-98 85-98zm52 81c6-60-76-77-97-28-3 7-6 17-6 28h103" id="aR"/><path fill="#a9afb8" d="M210-169c-67 3-38 105-44 169h-31v-121c0-29-5-50-35-48C34-165 62-65 56 0H25l-1-190h30c1 10-1 24 2 32 10-44 99-50 107 0 11-21 27-35 58-36 85-2 47 119 55 194h-31v-121c0-29-5-49-35-48" id="aS"/><path fill="#a9afb8" d="M84 4C-5 8 30-112 23-190h32v120c0 31 7 50 39 49 72-2 45-101 50-169h31l1 190h-30c-1-10 1-25-2-33-11 22-28 36-60 37" id="aT"/><g id="n"><use transform="matrix(0.04248971193415638,0,0,0.04248971193415638,0,0)" xlink:href="#aP"/><use transform="matrix(0.04248971193415638,0,0,0.04248971193415638,10.19753086419753,0)" xlink:href="#aQ"/><use transform="matrix(0.04248971193415638,0,0,0.04248971193415638,13.554218106995881,0)" xlink:href="#aR"/><use transform="matrix(0.04248971193415638,0,0,0.04248971193415638,22.05216049382716,0)" xlink:href="#aS"/><use transform="matrix(0.04248971193415638,0,0,0.04248971193415638,34.75658436213992,0)" xlink:href="#aT"/></g><path fill="#a9afb8" d="M127-220V0H93v-220H8v-28h204v28h-85" id="aU"/><path fill="#a9afb8" d="M115-194c53 0 69 39 70 98 0 66-23 100-70 100C84 3 66-7 56-30L54 0H23l1-261h32v101c10-23 28-34 59-34zm-8 174c40 0 45-34 45-75 0-40-5-75-45-74-42 0-51 32-51 76 0 43 10 73 51 73" id="aV"/><path fill="#a9afb8" d="M143 0L79-87 56-68V0H24v-261h32v163l83-92h37l-77 82L181 0h-38" id="aW"/><path fill="#a9afb8" d="M206 0h-36l-40-164L89 0H53L-1-190h32L70-26l43-164h34l41 164 42-164h31" id="aX"/><g id="o"><use transform="matrix(0.04248971193415638,0,0,0.04248971193415638,0,0)" xlink:href="#aU"/><use transform="matrix(0.04248971193415638,0,0,0.04248971193415638,7.605658436213991,0)" xlink:href="#aR"/><use transform="matrix(0.04248971193415638,0,0,0.04248971193415638,16.103600823045266,0)" xlink:href="#aV"/><use transform="matrix(0.04248971193415638,0,0,0.04248971193415638,24.60154320987654,0)" xlink:href="#aW"/><use transform="matrix(0.04248971193415638,0,0,0.04248971193415638,32.249691358024684,0)" xlink:href="#aR"/><use transform="matrix(0.04248971193415638,0,0,0.04248971193415638,40.74763374485596,0)" xlink:href="#aX"/></g><path fill="#a9afb8" d="M32 76v-337h29V76H32" id="aY"/><use transform="matrix(0.04248971193415638,0,0,0.04248971193415638,0,0)" xlink:href="#aY" id="p"/><path fill="#a9afb8" d="M63-220v92h138v28H63V0H30v-248h175v28H63" id="aZ"/><path fill="#a9afb8" d="M114-163C36-179 61-72 57 0H25l-1-190h30c1 12-1 29 2 39 6-27 23-49 58-41v29" id="ba"/><path fill="#a9afb8" d="M141-36C126-15 110 5 73 4 37 3 15-17 15-53c-1-64 63-63 125-63 3-35-9-54-41-54-24 1-41 7-42 31l-33-3c5-37 33-52 76-52 45 0 72 20 72 64v82c-1 20 7 32 28 27v20c-31 9-61-2-59-35zM48-53c0 20 12 33 32 33 41-3 63-29 60-74-43 2-92-5-92 41" id="bb"/><path fill="#a9afb8" d="M179-190L93 31C79 59 56 82 12 73V49c39 6 53-20 64-50L1-190h34L92-34l54-156h33" id="bc"/><g id="q"><use transform="matrix(0.04248971193415638,0,0,0.04248971193415638,0,0)" xlink:href="#aZ"/><use transform="matrix(0.04248971193415638,0,0,0.04248971193415638,9.305246913580246,0)" xlink:href="#aR"/><use transform="matrix(0.04248971193415638,0,0,0.04248971193415638,17.80318930041152,0)" xlink:href="#aV"/><use transform="matrix(0.04248971193415638,0,0,0.04248971193415638,26.301131687242794,0)" xlink:href="#ba"/><use transform="matrix(0.04248971193415638,0,0,0.04248971193415638,31.357407407407408,0)" xlink:href="#aT"/><use transform="matrix(0.04248971193415638,0,0,0.04248971193415638,39.85534979423868,0)" xlink:href="#bb"/><use transform="matrix(0.04248971193415638,0,0,0.04248971193415638,48.35329218106995,0)" xlink:href="#ba"/><use transform="matrix(0.04248971193415638,0,0,0.04248971193415638,53.40956790123455,0)" xlink:href="#bc"/></g><path fill="#a9afb8" d="M110-160c48 1 74 30 74 79 0 53-28 85-80 85-65 0-83-55-86-122-5-90 50-162 133-122 14 7 22 21 27 39l-31 6c-5-40-67-38-82-6-9 19-15 44-15 74 11-20 30-34 60-33zm-7 138c34 0 49-23 49-58s-16-56-50-56c-29 0-50 16-49 49 1 36 15 65 50 65" id="bd"/><path fill="#a9afb8" d="M68-38c1 34 0 65-14 84H32c9-13 17-26 17-46H33v-38h35" id="be"/><g id="r"><use transform="matrix(0.04248971193415638,0,0,0.04248971193415638,0,0)" xlink:href="#bd"/><use transform="matrix(0.04248971193415638,0,0,0.04248971193415638,8.497942386831275,0)" xlink:href="#be"/></g><path fill="#a9afb8" d="M101-251c82-7 93 87 43 132L82-64C71-53 59-42 53-27h129V0H18c2-99 128-94 128-182 0-28-16-43-45-43s-46 15-49 41l-32-3c6-41 34-60 81-64" id="bf"/><path fill="#a9afb8" d="M101-251c68 0 85 55 85 127S166 4 100 4C33 4 14-52 14-124c0-73 17-127 87-127zm-1 229c47 0 54-49 54-102s-4-102-53-102c-51 0-55 48-55 102 0 53 5 102 54 102" id="bg"/><path fill="#a9afb8" d="M126-127c33 6 58 20 58 59 0 88-139 92-164 29-3-8-5-16-6-25l32-3c6 27 21 44 54 44 32 0 52-15 52-46 0-38-36-46-79-43v-28c39 1 72-4 72-42 0-27-17-43-46-43-28 0-47 15-49 41l-32-3c6-42 35-63 81-64 48-1 79 21 79 65 0 36-21 52-52 59" id="bh"/><g id="s"><use transform="matrix(0.04248971193415638,0,0,0.04248971193415638,0,0)" xlink:href="#bf"/><use transform="matrix(0.04248971193415638,0,0,0.04248971193415638,8.497942386831275,0)" xlink:href="#bg"/><use transform="matrix(0.04248971193415638,0,0,0.04248971193415638,16.99588477366255,0)" xlink:href="#bf"/><use transform="matrix(0.04248971193415638,0,0,0.04248971193415638,25.493827160493822,0)" xlink:href="#bh"/></g><g id="t"><use transform="matrix(0.08641975308641973,0,0,0.08641975308641973,0,0)" xlink:href="#aD"/><use transform="matrix(0.08641975308641973,0,0,0.08641975308641973,8.641975308641973,0)" xlink:href="#aw"/><use transform="matrix(0.08641975308641973,0,0,0.08641975308641973,25.925925925925917,0)" xlink:href="#aw"/></g><path fill="#fff" d="M55-144c13 50 104 24 104 88C159 21 15 23 1-39l26-10c6 40 102 42 102-4-13-50-104-23-104-87 0-71 143-71 148-8l-29 4c-5-35-85-37-89 0" id="bi"/><g id="u"><use transform="matrix(0.08641975308641973,0,0,0.08641975308641973,0,0)" xlink:href="#az"/><use transform="matrix(0.08641975308641973,0,0,0.08641975308641973,8.641975308641973,0)" xlink:href="#ay"/><use transform="matrix(0.08641975308641973,0,0,0.08641975308641973,24.197530864197525,0)" xlink:href="#ax"/><use transform="matrix(0.08641975308641973,0,0,0.08641975308641973,41.48148148148147,0)" xlink:href="#aw"/><use transform="matrix(0.08641975308641973,0,0,0.08641975308641973,58.765432098765416,0)" xlink:href="#bi"/></g><path fill="#fff" d="M44-68c0 29 11 47 38 47 30 0 42-19 51-41l28 9C148-21 126 4 82 4 31 4 10-29 12-85c3-77 74-140 146-93 12 8 15 23 18 40l-31 5c-1-22-13-36-36-36-52 0-65 49-65 101" id="bj"/><path fill="#fff" d="M67 3c-93-2-31-127-26-193h32L48-50c-3 39 53 32 70 12 30-34 30-101 43-152h32L157 0h-30c1-10 6-24 4-33-14 20-29 37-64 36" id="bk"/><g id="v"><use transform="matrix(0.08641975308641973,0,0,0.08641975308641973,0,0)" xlink:href="#at"/><use transform="matrix(0.08641975308641973,0,0,0.08641975308641973,17.283950617283946,0)" xlink:href="#bj"/><use transform="matrix(0.08641975308641973,0,0,0.08641975308641973,32.8395061728395,0)" xlink:href="#bj"/><use transform="matrix(0.08641975308641973,0,0,0.08641975308641973,48.39506172839505,0)" xlink:href="#aE"/><use transform="matrix(0.08641975308641973,0,0,0.08641975308641973,65.679012345679,0)" xlink:href="#bk"/><use transform="matrix(0.08641975308641973,0,0,0.08641975308641973,82.96296296296295,0)" xlink:href="#au"/><use transform="matrix(0.08641975308641973,0,0,0.08641975308641973,100.2469135802469,0)" xlink:href="#az"/></g><g id="w"><use transform="matrix(0.08641975308641973,0,0,0.08641975308641973,0,0)" xlink:href="#au"/><use transform="matrix(0.08641975308641973,0,0,0.08641975308641973,17.283950617283946,0)" xlink:href="#aE"/></g><path fill="#fff" d="M66-151c12-25 30-51 66-40l-6 26C45-176 58-65 38 0H6l36-190h30" id="bl"/><path fill="#fff" d="M67-158c15-20 31-36 64-36 94 0 33 127 27 194h-32l25-140c3-38-53-32-70-12C52-117 51-51 37 0H6l51-261h31" id="bm"/><g id="x"><use transform="matrix(0.08641975308641973,0,0,0.08641975308641973,0,0)" xlink:href="#as"/><use transform="matrix(0.08641975308641973,0,0,0.08641975308641973,25.8395061728395,0)" xlink:href="#aw"/><use transform="matrix(0.08641975308641973,0,0,0.08641975308641973,43.12345679012344,0)" xlink:href="#bl"/><use transform="matrix(0.08641975308641973,0,0,0.08641975308641973,53.40740740740738,0)" xlink:href="#bj"/><use transform="matrix(0.08641975308641973,0,0,0.08641975308641973,68.96296296296295,0)" xlink:href="#bm"/><use transform="matrix(0.08641975308641973,0,0,0.08641975308641973,86.2469135802469,0)" xlink:href="#at"/><use transform="matrix(0.08641975308641973,0,0,0.08641975308641973,103.53086419753085,0)" xlink:href="#au"/><use transform="matrix(0.08641975308641973,0,0,0.08641975308641973,120.8148148148148,0)" xlink:href="#az"/></g><path fill="#fff" d="M14 0l48-248h34L48 0H14" id="bn"/><path fill="#fff" d="M133-28C103 26-5 8 13-77c13-62 24-115 90-117 29-1 46 15 56 35l19-102h32L160 0h-30zM45-64c-2 27 10 43 35 43 54-1 69-50 69-103 0-29-15-46-42-46-53-1-58 58-62 106" id="bo"/><g id="y"><use transform="matrix(0.08641975308641973,0,0,0.08641975308641973,0,0)" xlink:href="#bn"/><use transform="matrix(0.08641975308641973,0,0,0.08641975308641973,8.641975308641973,0)" xlink:href="#bo"/></g><path fill="#333" d="M241-173c-1 82-78 91-166 86L58 0H6l48-248c87 0 188-12 187 75zm-53 2c0-43-48-36-90-36l-15 80c50 0 105 7 105-44" id="bp"/><path fill="#333" d="M166-52c-4 17 5 29 24 23l-3 27c-30 11-74 1-67-34C105-15 91 4 56 4 23 4 3-15 2-49c0-64 63-67 128-67 10-22 3-53-29-45-13 3-22 10-25 24l-46-5c5-64 156-77 153 0-1 33-11 60-17 90zM97-88c-44-9-64 57-19 57 31 0 42-28 47-57H97" id="bq"/><g id="z"><use transform="matrix(0.08641975308641973,0,0,0.08641975308641973,0,0)" xlink:href="#bp"/><use transform="matrix(0.08641975308641973,0,0,0.08641975308641973,20.740740740740737,0)" xlink:href="#bq"/><use transform="matrix(0.08641975308641973,0,0,0.08641975308641973,38.02469135802468,0)" xlink:href="#aj"/><use transform="matrix(0.08641975308641973,0,0,0.08641975308641973,50.12345679012345,0)" xlink:href="#af"/><use transform="matrix(0.08641975308641973,0,0,0.08641975308641973,67.40740740740739,0)" xlink:href="#an"/><use transform="matrix(0.08641975308641973,0,0,0.08641975308641973,86.33333333333331,0)" xlink:href="#ae"/></g><path fill="#fff" d="M89 0H52L20-190h33L74-25l89-165h34" id="br"/><path fill="#fff" d="M188 0h-37l-8-164L71 0H34L18-190h31l8 164 75-164h34l8 164 74-164h31" id="bs"/><g id="A"><use transform="matrix(0.08641975308641973,0,0,0.08641975308641973,0,0)" xlink:href="#br"/><use transform="matrix(0.08641975308641973,0,0,0.08641975308641973,15.555555555555552,0)" xlink:href="#aA"/><use transform="matrix(0.08641975308641973,0,0,0.08641975308641973,22.38271604938271,0)" xlink:href="#aw"/><use transform="matrix(0.08641975308641973,0,0,0.08641975308641973,39.66666666666666,0)" xlink:href="#bs"/></g><g id="B"><use transform="matrix(0.08641975308641973,0,0,0.08641975308641973,0,0)" xlink:href="#bi"/><use transform="matrix(0.08641975308641973,0,0,0.08641975308641973,15.555555555555552,0)" xlink:href="#az"/><use transform="matrix(0.08641975308641973,0,0,0.08641975308641973,24.197530864197525,0)" xlink:href="#bk"/><use transform="matrix(0.08641975308641973,0,0,0.08641975308641973,41.48148148148147,0)" xlink:href="#bo"/><use transform="matrix(0.08641975308641973,0,0,0.08641975308641973,58.765432098765416,0)" xlink:href="#aw"/><use transform="matrix(0.08641975308641973,0,0,0.08641975308641973,76.04938271604937,0)" xlink:href="#au"/><use transform="matrix(0.08641975308641973,0,0,0.08641975308641973,93.33333333333331,0)" xlink:href="#az"/></g><g id="C"><use transform="matrix(0.08641975308641973,0,0,0.08641975308641973,0,0)" xlink:href="#aD"/><use transform="matrix(0.08641975308641973,0,0,0.08641975308641973,8.641975308641973,0)" xlink:href="#aw"/><use transform="matrix(0.08641975308641973,0,0,0.08641975308641973,25.925925925925917,0)" xlink:href="#aw"/></g><path fill="#fff" d="M6 0l50-261h32L37 0H6" id="bt"/><g id="D"><use transform="matrix(0.08641975308641973,0,0,0.08641975308641973,0,0)" xlink:href="#bi"/><use transform="matrix(0.08641975308641973,0,0,0.08641975308641973,15.555555555555552,0)" xlink:href="#aw"/><use transform="matrix(0.08641975308641973,0,0,0.08641975308641973,32.8395061728395,0)" xlink:href="#bt"/><use transform="matrix(0.08641975308641973,0,0,0.08641975308641973,39.66666666666666,0)" xlink:href="#aw"/><use transform="matrix(0.08641975308641973,0,0,0.08641975308641973,56.950617283950606,0)" xlink:href="#bj"/><use transform="matrix(0.08641975308641973,0,0,0.08641975308641973,72.50617283950616,0)" xlink:href="#az"/></g><g id="E"><use transform="matrix(0.08641975308641973,0,0,0.08641975308641973,0,0)" xlink:href="#ax"/><use transform="matrix(0.08641975308641973,0,0,0.08641975308641973,17.283950617283946,0)" xlink:href="#at"/><use transform="matrix(0.08641975308641973,0,0,0.08641975308641973,34.56790123456789,0)" xlink:href="#ay"/><use transform="matrix(0.08641975308641973,0,0,0.08641975308641973,50.12345679012345,0)" xlink:href="#as"/><use transform="matrix(0.08641975308641973,0,0,0.08641975308641973,75.96296296296293,0)" xlink:href="#aw"/><use transform="matrix(0.08641975308641973,0,0,0.08641975308641973,93.24691358024687,0)" xlink:href="#au"/><use transform="matrix(0.08641975308641973,0,0,0.08641975308641973,110.53086419753085,0)" xlink:href="#az"/></g><g id="F"><use transform="matrix(0.08641975308641973,0,0,0.08641975308641973,0,0)" xlink:href="#as"/><use transform="matrix(0.08641975308641973,0,0,0.08641975308641973,25.8395061728395,0)" xlink:href="#aw"/><use transform="matrix(0.08641975308641973,0,0,0.08641975308641973,43.12345679012344,0)" xlink:href="#az"/><use transform="matrix(0.08641975308641973,0,0,0.08641975308641973,51.76543209876541,0)" xlink:href="#bm"/><use transform="matrix(0.08641975308641973,0,0,0.08641975308641973,69.04938271604937,0)" xlink:href="#aE"/><use transform="matrix(0.08641975308641973,0,0,0.08641975308641973,86.33333333333331,0)" xlink:href="#bo"/></g><g id="G"><use transform="matrix(0.08641975308641973,0,0,0.08641975308641973,0,0)" xlink:href="#ax"/><use transform="matrix(0.08641975308641973,0,0,0.08641975308641973,17.283950617283946,0)" xlink:href="#at"/><use transform="matrix(0.08641975308641973,0,0,0.08641975308641973,34.56790123456789,0)" xlink:href="#ay"/></g><g id="H"><use transform="matrix(0.08641975308641973,0,0,0.08641975308641973,0,0)" xlink:href="#aD"/><use transform="matrix(0.08641975308641973,0,0,0.08641975308641973,8.641975308641973,0)" xlink:href="#aw"/><use transform="matrix(0.08641975308641973,0,0,0.08641975308641973,25.925925925925917,0)" xlink:href="#aw"/></g><g id="I"><use transform="matrix(0.08641975308641973,0,0,0.08641975308641973,0,0)" xlink:href="#bi"/><use transform="matrix(0.08641975308641973,0,0,0.08641975308641973,15.555555555555552,0)" xlink:href="#aw"/><use transform="matrix(0.08641975308641973,0,0,0.08641975308641973,32.8395061728395,0)" xlink:href="#at"/><use transform="matrix(0.08641975308641973,0,0,0.08641975308641973,50.12345679012345,0)" xlink:href="#bl"/><use transform="matrix(0.08641975308641973,0,0,0.08641975308641973,60.4074074074074,0)" xlink:href="#bj"/><use transform="matrix(0.08641975308641973,0,0,0.08641975308641973,75.96296296296295,0)" xlink:href="#bm"/></g><g id="J"><use transform="matrix(0.08641975308641973,0,0,0.08641975308641973,0,0)" xlink:href="#aD"/><use transform="matrix(0.08641975308641973,0,0,0.08641975308641973,8.641975308641973,0)" xlink:href="#aA"/><use transform="matrix(0.08641975308641973,0,0,0.08641975308641973,15.469135802469133,0)" xlink:href="#bt"/><use transform="matrix(0.08641975308641973,0,0,0.08641975308641973,22.29629629629629,0)" xlink:href="#az"/><use transform="matrix(0.08641975308641973,0,0,0.08641975308641973,30.938271604938265,0)" xlink:href="#aw"/><use transform="matrix(0.08641975308641973,0,0,0.08641975308641973,48.222222222222214,0)" xlink:href="#bl"/></g><g id="K"><use transform="matrix(0.08641975308641973,0,0,0.08641975308641973,0,0)" xlink:href="#av"/><use transform="matrix(0.08641975308641973,0,0,0.08641975308641973,17.283950617283946,0)" xlink:href="#aw"/><use transform="matrix(0.08641975308641973,0,0,0.08641975308641973,34.56790123456789,0)" xlink:href="#au"/><use transform="matrix(0.08641975308641973,0,0,0.08641975308641973,51.85185185185183,0)" xlink:href="#aw"/><use transform="matrix(0.08641975308641973,0,0,0.08641975308641973,69.13580246913578,0)" xlink:href="#bl"/><use transform="matrix(0.08641975308641973,0,0,0.08641975308641973,79.41975308641973,0)" xlink:href="#at"/><use transform="matrix(0.08641975308641973,0,0,0.08641975308641973,96.70370370370368,0)" xlink:href="#az"/><use transform="matrix(0.08641975308641973,0,0,0.08641975308641973,105.34567901234566,0)" xlink:href="#aw"/></g><g id="L"><use transform="matrix(0.08641975308641973,0,0,0.08641975308641973,0,0)" xlink:href="#aD"/><use transform="matrix(0.08641975308641973,0,0,0.08641975308641973,8.641975308641973,0)" xlink:href="#aw"/><use transform="matrix(0.08641975308641973,0,0,0.08641975308641973,25.925925925925917,0)" xlink:href="#aw"/></g><g id="M"><use transform="matrix(0.08641975308641973,0,0,0.08641975308641973,0,0)" xlink:href="#bl"/><use transform="matrix(0.08641975308641973,0,0,0.08641975308641973,10.28395061728395,0)" xlink:href="#aw"/><use transform="matrix(0.08641975308641973,0,0,0.08641975308641973,27.567901234567895,0)" xlink:href="#ax"/><use transform="matrix(0.08641975308641973,0,0,0.08641975308641973,44.85185185185184,0)" xlink:href="#aE"/><use transform="matrix(0.08641975308641973,0,0,0.08641975308641973,62.13580246913578,0)" xlink:href="#bl"/><use transform="matrix(0.08641975308641973,0,0,0.08641975308641973,72.41975308641973,0)" xlink:href="#az"/></g><g id="N"><use transform="matrix(0.08641975308641973,0,0,0.08641975308641973,0,0)" xlink:href="#bi"/><use transform="matrix(0.08641975308641973,0,0,0.08641975308641973,15.555555555555552,0)" xlink:href="#aw"/><use transform="matrix(0.08641975308641973,0,0,0.08641975308641973,32.8395061728395,0)" xlink:href="#at"/><use transform="matrix(0.08641975308641973,0,0,0.08641975308641973,50.12345679012345,0)" xlink:href="#bl"/><use transform="matrix(0.08641975308641973,0,0,0.08641975308641973,60.4074074074074,0)" xlink:href="#bj"/><use transform="matrix(0.08641975308641973,0,0,0.08641975308641973,75.96296296296295,0)" xlink:href="#bm"/></g><g id="O"><use transform="matrix(0.08641975308641973,0,0,0.08641975308641973,0,0)" xlink:href="#bi"/><use transform="matrix(0.08641975308641973,0,0,0.08641975308641973,15.555555555555552,0)" xlink:href="#az"/><use transform="matrix(0.08641975308641973,0,0,0.08641975308641973,24.197530864197525,0)" xlink:href="#bk"/><use transform="matrix(0.08641975308641973,0,0,0.08641975308641973,41.48148148148147,0)" xlink:href="#bo"/><use transform="matrix(0.08641975308641973,0,0,0.08641975308641973,58.765432098765416,0)" xlink:href="#aw"/><use transform="matrix(0.08641975308641973,0,0,0.08641975308641973,76.04938271604937,0)" xlink:href="#au"/><use transform="matrix(0.08641975308641973,0,0,0.08641975308641973,93.33333333333331,0)" xlink:href="#az"/></g><path fill="#333" d="M18-100v-36l175-74v27L42-118l151 64v27" id="bu"/><path fill="#333" d="M24-231v-30h32v30H24zM24 0v-190h32V0H24" id="bv"/><path fill="#333" d="M117-194c89-4 53 116 60 194h-32v-121c0-31-8-49-39-48C34-167 62-67 57 0H25l-1-190h30c1 10-1 24 2 32 11-22 29-35 61-36" id="bw"/><path fill="#333" d="M96-169c-40 0-48 33-48 73s9 75 48 75c24 0 41-14 43-38l32 2c-6 37-31 61-74 61-59 0-76-41-82-99-10-93 101-131 147-64 4 7 5 14 7 22l-32 3c-4-21-16-35-41-35" id="bx"/><path fill="#333" d="M24 0v-261h32V0H24" id="by"/><path fill="#333" d="M84 4C-5 8 30-112 23-190h32v120c0 31 7 50 39 49 72-2 45-101 50-169h31l1 190h-30c-1-10 1-25-2-33-11 22-28 36-60 37" id="bz"/><path fill="#333" d="M85-194c31 0 48 13 60 33l-1-100h32l1 261h-30c-2-10 0-23-3-31C134-8 116 4 85 4 32 4 16-35 15-94c0-66 23-100 70-100zm9 24c-40 0-46 34-46 75 0 40 6 74 45 74 42 0 51-32 51-76 0-42-9-74-50-73" id="bA"/><path fill="#333" d="M100-194c63 0 86 42 84 106H49c0 40 14 67 53 68 26 1 43-12 49-29l28 8c-11 28-37 45-77 45C44 4 14-33 15-96c1-61 26-98 85-98zm52 81c6-60-76-77-97-28-3 7-6 17-6 28h103" id="bB"/><path fill="#333" d="M18-27v-27l151-64-151-65v-27l175 74v36" id="bC"/><g id="P"><use transform="matrix(0.08703703703703701,0,0,0.08703703703703701,0,0)" xlink:href="#bu"/><use transform="matrix(0.08703703703703701,0,0,0.08703703703703701,18.27777777777777,0)" xlink:href="#bu"/><use transform="matrix(0.08703703703703701,0,0,0.08703703703703701,36.55555555555554,0)" xlink:href="#bv"/><use transform="matrix(0.08703703703703701,0,0,0.08703703703703701,43.43148148148147,0)" xlink:href="#bw"/><use transform="matrix(0.08703703703703701,0,0,0.08703703703703701,60.83888888888887,0)" xlink:href="#bx"/><use transform="matrix(0.08703703703703701,0,0,0.08703703703703701,76.50555555555553,0)" xlink:href="#by"/><use transform="matrix(0.08703703703703701,0,0,0.08703703703703701,83.38148148148146,0)" xlink:href="#bz"/><use transform="matrix(0.08703703703703701,0,0,0.08703703703703701,100.78888888888886,0)" xlink:href="#bA"/><use transform="matrix(0.08703703703703701,0,0,0.08703703703703701,118.19629629629625,0)" xlink:href="#bB"/><use transform="matrix(0.08703703703703701,0,0,0.08703703703703701,135.60370370370367,0)" xlink:href="#bC"/><use transform="matrix(0.08703703703703701,0,0,0.08703703703703701,153.88148148148144,0)" xlink:href="#bC"/></g><path fill="#333" d="M141 0L90-78 38 0H4l68-98-65-92h35l48 74 47-74h35l-64 92 68 98h-35" id="bD"/><path fill="#333" d="M59-47c-2 24 18 29 38 22v24C64 9 27 4 27-40v-127H5v-23h24l9-43h21v43h35v23H59v120" id="bE"/><g id="Q"><use transform="matrix(0.08703703703703701,0,0,0.08703703703703701,0,0)" xlink:href="#bu"/><use transform="matrix(0.08703703703703701,0,0,0.08703703703703701,18.27777777777777,0)" xlink:href="#bu"/><use transform="matrix(0.08703703703703701,0,0,0.08703703703703701,36.55555555555554,0)" xlink:href="#bB"/><use transform="matrix(0.08703703703703701,0,0,0.08703703703703701,53.96296296296295,0)" xlink:href="#bD"/><use transform="matrix(0.08703703703703701,0,0,0.08703703703703701,69.6296296296296,0)" xlink:href="#bE"/><use transform="matrix(0.08703703703703701,0,0,0.08703703703703701,78.3333333333333,0)" xlink:href="#bB"/><use transform="matrix(0.08703703703703701,0,0,0.08703703703703701,95.7407407407407,0)" xlink:href="#bw"/><use transform="matrix(0.08703703703703701,0,0,0.08703703703703701,113.14814814814811,0)" xlink:href="#bA"/><use transform="matrix(0.08703703703703701,0,0,0.08703703703703701,130.55555555555551,0)" xlink:href="#bC"/><use transform="matrix(0.08703703703703701,0,0,0.08703703703703701,148.8333333333333,0)" xlink:href="#bC"/></g><g id="R"><use transform="matrix(0.08641975308641973,0,0,0.08641975308641973,0,0)" xlink:href="#at"/><use transform="matrix(0.08641975308641973,0,0,0.08641975308641973,17.283950617283946,0)" xlink:href="#bj"/><use transform="matrix(0.08641975308641973,0,0,0.08641975308641973,32.8395061728395,0)" xlink:href="#bj"/><use transform="matrix(0.08641975308641973,0,0,0.08641975308641973,48.39506172839505,0)" xlink:href="#aw"/><use transform="matrix(0.08641975308641973,0,0,0.08641975308641973,65.679012345679,0)" xlink:href="#ax"/><use transform="matrix(0.08641975308641973,0,0,0.08641975308641973,82.96296296296295,0)" xlink:href="#az"/></g><g id="S"><use transform="matrix(0.08641975308641973,0,0,0.08641975308641973,0,0)" xlink:href="#aE"/><use transform="matrix(0.08641975308641973,0,0,0.08641975308641973,17.283950617283946,0)" xlink:href="#au"/><use transform="matrix(0.08641975308641973,0,0,0.08641975308641973,34.56790123456789,0)" xlink:href="#bj"/><use transform="matrix(0.08641975308641973,0,0,0.08641975308641973,50.12345679012345,0)" xlink:href="#at"/><use transform="matrix(0.08641975308641973,0,0,0.08641975308641973,67.40740740740739,0)" xlink:href="#bi"/><use transform="matrix(0.08641975308641973,0,0,0.08641975308641973,82.96296296296295,0)" xlink:href="#bm"/></g><g id="T"><use transform="matrix(0.08641975308641973,0,0,0.08641975308641973,0,0)" xlink:href="#ax"/><use transform="matrix(0.08641975308641973,0,0,0.08641975308641973,17.283950617283946,0)" xlink:href="#at"/><use transform="matrix(0.08641975308641973,0,0,0.08641975308641973,34.56790123456789,0)" xlink:href="#ay"/><use transform="matrix(0.08641975308641973,0,0,0.08641975308641973,50.12345679012345,0)" xlink:href="#as"/><use transform="matrix(0.08641975308641973,0,0,0.08641975308641973,75.96296296296293,0)" xlink:href="#aw"/><use transform="matrix(0.08641975308641973,0,0,0.08641975308641973,93.24691358024687,0)" xlink:href="#au"/><use transform="matrix(0.08641975308641973,0,0,0.08641975308641973,110.53086419753085,0)" xlink:href="#az"/></g><path fill="#333" d="M210-169c-67 3-38 105-44 169h-31v-121c0-29-5-50-35-48C34-165 62-65 56 0H25l-1-190h30c1 10-1 24 2 32 10-44 99-50 107 0 11-21 27-35 58-36 85-2 47 119 55 194h-31v-121c0-29-5-49-35-48" id="bF"/><path fill="#333" d="M141-36C126-15 110 5 73 4 37 3 15-17 15-53c-1-64 63-63 125-63 3-35-9-54-41-54-24 1-41 7-42 31l-33-3c5-37 33-52 76-52 45 0 72 20 72 64v82c-1 20 7 32 28 27v20c-31 9-61-2-59-35zM48-53c0 20 12 33 32 33 41-3 63-29 60-74-43 2-92-5-92 41" id="bG"/><path fill="#333" d="M177-190C167-65 218 103 67 71c-23-6-38-20-44-43l32-5c15 47 100 32 89-28v-30C133-14 115 1 83 1 29 1 15-40 15-95c0-56 16-97 71-98 29-1 48 16 59 35 1-10 0-23 2-32h30zM94-22c36 0 50-32 50-73 0-42-14-75-50-75-39 0-46 34-46 75s6 73 46 73" id="bH"/><g id="U"><use transform="matrix(0.08641975308641976,0,0,0.08641975308641976,0,0)" xlink:href="#bF"/><use transform="matrix(0.08641975308641976,0,0,0.08641975308641976,25.83950617283951,0)" xlink:href="#bG"/><use transform="matrix(0.08641975308641976,0,0,0.08641975308641976,43.12345679012346,0)" xlink:href="#bw"/><use transform="matrix(0.08641975308641976,0,0,0.08641975308641976,60.407407407407426,0)" xlink:href="#bG"/><use transform="matrix(0.08641975308641976,0,0,0.08641975308641976,77.69135802469137,0)" xlink:href="#bH"/><use transform="matrix(0.08641975308641976,0,0,0.08641975308641976,94.97530864197532,0)" xlink:href="#bB"/></g><path fill="#333" d="M18-150v-26h174v26H18zm0 90v-26h174v26H18" id="bI"/><path fill="#333" d="M114-163C36-179 61-72 57 0H25l-1-190h30c1 12-1 29 2 39 6-27 23-49 58-41v29" id="bJ"/><path fill="#333" d="M68-38c1 34 0 65-14 84H32c9-13 17-26 17-46H33v-38h35" id="bK"/><g id="V"><use transform="matrix(0.08641975308641976,0,0,0.08641975308641976,0,0)" xlink:href="#bI"/><use transform="matrix(0.08641975308641976,0,0,0.08641975308641976,18.14814814814815,0)" xlink:href="#bx"/><use transform="matrix(0.08641975308641976,0,0,0.08641975308641976,33.70370370370371,0)" xlink:href="#bJ"/><use transform="matrix(0.08641975308641976,0,0,0.08641975308641976,43.98765432098766,0)" xlink:href="#bB"/><use transform="matrix(0.08641975308641976,0,0,0.08641975308641976,61.27160493827161,0)" xlink:href="#bG"/><use transform="matrix(0.08641975308641976,0,0,0.08641975308641976,78.55555555555556,0)" xlink:href="#bE"/><use transform="matrix(0.08641975308641976,0,0,0.08641975308641976,87.19753086419753,0)" xlink:href="#bB"/><use transform="matrix(0.08641975308641976,0,0,0.08641975308641976,104.48148148148147,0)" xlink:href="#bK"/></g><path fill="#333" d="M108 0H70L1-190h34L89-25l56-165h34" id="bL"/><path fill="#333" d="M206 0h-36l-40-164L89 0H53L-1-190h32L70-26l43-164h34l41 164 42-164h31" id="bM"/><g id="W"><use transform="matrix(0.08641975308641976,0,0,0.08641975308641976,0,0)" xlink:href="#bL"/><use transform="matrix(0.08641975308641976,0,0,0.08641975308641976,15.555555555555557,0)" xlink:href="#bv"/><use transform="matrix(0.08641975308641976,0,0,0.08641975308641976,22.38271604938272,0)" xlink:href="#bB"/><use transform="matrix(0.08641975308641976,0,0,0.08641975308641976,39.66666666666667,0)" xlink:href="#bM"/></g><path fill="#333" d="M115-194c55 1 70 41 70 98S169 2 115 4C84 4 66-9 55-30l1 105H24l-1-265h31l2 30c10-21 28-34 59-34zm-8 174c40 0 45-34 45-75s-6-73-45-74c-42 0-51 32-51 76 0 43 10 73 51 73" id="bN"/><g id="X"><use transform="matrix(0.08641975308641976,0,0,0.08641975308641976,0,0)" xlink:href="#bK"/><use transform="matrix(0.08641975308641976,0,0,0.08641975308641976,8.641975308641976,0)" xlink:href="#bz"/><use transform="matrix(0.08641975308641976,0,0,0.08641975308641976,25.925925925925927,0)" xlink:href="#bN"/><use transform="matrix(0.08641975308641976,0,0,0.08641975308641976,43.20987654320989,0)" xlink:href="#bA"/><use transform="matrix(0.08641975308641976,0,0,0.08641975308641976,60.49382716049384,0)" xlink:href="#bG"/><use transform="matrix(0.08641975308641976,0,0,0.08641975308641976,77.77777777777779,0)" xlink:href="#bE"/><use transform="matrix(0.08641975308641976,0,0,0.08641975308641976,86.41975308641976,0)" xlink:href="#bB"/></g><g id="Y"><use transform="matrix(0.08641975308641976,0,0,0.08641975308641976,0,0)" xlink:href="#bK"/><use transform="matrix(0.08641975308641976,0,0,0.08641975308641976,8.641975308641976,0)" xlink:href="#bA"/><use transform="matrix(0.08641975308641976,0,0,0.08641975308641976,25.925925925925927,0)" xlink:href="#bB"/><use transform="matrix(0.08641975308641976,0,0,0.08641975308641976,43.20987654320989,0)" xlink:href="#by"/><use transform="matrix(0.08641975308641976,0,0,0.08641975308641976,50.03703703703705,0)" xlink:href="#bB"/><use transform="matrix(0.08641975308641976,0,0,0.08641975308641976,67.320987654321,0)" xlink:href="#bE"/><use transform="matrix(0.08641975308641976,0,0,0.08641975308641976,75.96296296296298,0)" xlink:href="#bB"/></g><g id="Z"><use transform="matrix(0.08641975308641973,0,0,0.08641975308641973,0,0)" xlink:href="#ab"/><use transform="matrix(0.08641975308641973,0,0,0.08641975308641973,20.740740740740737,0)" xlink:href="#ae"/><use transform="matrix(0.08641975308641973,0,0,0.08641975308641973,31.024691358024686,0)" xlink:href="#ah"/><use transform="matrix(0.08641975308641973,0,0,0.08641975308641973,49.950617283950606,0)" xlink:href="#al"/><use transform="matrix(0.08641975308641973,0,0,0.08641975308641973,68.87654320987653,0)" xlink:href="#af"/><use transform="matrix(0.08641975308641973,0,0,0.08641975308641973,86.16049382716048,0)" xlink:href="#an"/><use transform="matrix(0.08641975308641973,0,0,0.08641975308641973,105.0864197530864,0)" xlink:href="#ae"/></g><g id="aa"><use transform="matrix(0.08641975308641973,0,0,0.08641975308641973,0,0)" xlink:href="#br"/><use transform="matrix(0.08641975308641973,0,0,0.08641975308641973,15.555555555555552,0)" xlink:href="#aA"/><use transform="matrix(0.08641975308641973,0,0,0.08641975308641973,22.38271604938271,0)" xlink:href="#aw"/><use transform="matrix(0.08641975308641973,0,0,0.08641975308641973,39.66666666666666,0)" xlink:href="#bs"/></g></defs></g></svg>